<?xml version="1.0" encoding="UTF-8"?>
<svg width='39px' height='20px' viewBox="0 0 39 39" version='1.1' xmlns="http://www.w3.org/2000/svg" xmlns:xlink="http://www.w3.org/1999/xlink">
<title>salmon</title>
<desc>Created with Sketch.</desc>
    <defs></defs>
     <g id="Page-1" stroke="none" stroke-width="1" fill="none" fill-rule="evenodd">
        <g id="salmon" transform="translate(-17.000000, -18.000000)"  fill-rule="nonzero"  fill="#FFFFFF">
            <g id="salmon-logo" transform="translate(17.000000, 18.000000)">   
                <path d="M52.23,181.08c13.4,7.53,26.63,15.38,40.23,22.54,37.19,19.58,75,37.88,116,48.22,33,8.33,66.3,15.32,99.51,22.71,26.43,5.88,53,11.27,79.4,17.23,37.22,8.39,74.51,16.53,111.49,25.89,23.11,5.85,45.84,13.32,68.44,21,7.67,2.59,14.79,7.4,21.5,12.14,8.84,6.25,12.16,15.38,9.14,25.88a71.6,71.6,0,0,1-7.6,17.49c-14.42,23.41-35.87,38.67-60.06,50.63-9.61,4.75-19.17,9.64-28.51,14.88a15.27,15.27,0,0,0-5.76,6.52c-12.56,26.31-24.91,52.73-37.34,79.11a25.63,25.63,0,0,1-1.88,3C445.51,472.44,413.33,407,362.09,350.72l43.62,15.59c28.51,10.17,57.05,20.26,85.49,30.62,3.93,1.44,6.72.77,9.85-1.56,14.84-11.06,19.22-17.22,21.88-31.35,1.4,12.08-1.7,23.62-10.8,34.66a207.59,207.59,0,0,1-21.19,21.79c-3.59,3.24-4.69,5.77-2.4,10,1.53,2.78,2.62,5.79,4.33,9.67,6.72-3.67,13.23-6.87,19.37-10.67,13.59-8.43,27.64-16.42,38-28.94a56.66,56.66,0,0,0,9.22-16c3.11-8.35,1.55-16.3-5.33-22.72-12.17-11.34-26.66-18.93-41.63-25.63-37.12-16.62-76.44-26.08-115.88-35-33.55-7.56-67.25-14.45-100.79-22-31.71-7.17-63.52-14-94.88-22.49-44.81-12.1-88.3-27.86-127.36-53.75A216.63,216.63,0,0,1,54,187.73c-1.6-1.35-2.07-4-3.06-6.1Z" style="fill:#020202"></path>
                <path d="M21,126.1c2.13-7.13,7-12.83,12.58-17.87C48.3,95,66.28,88.42,85,83.49c26.73-7,54.08-9,81.58-10.45a670.05,670.05,0,0,1,102.07,2.71,619.25,619.25,0,0,1,131.73,27.69c31.9,10.47,62.72,23.44,92,39.87,3.39,1.9,5.66,1.27,8.5-1.19,18.36-16,40.49-22.49,64.16-24.92a17.76,17.76,0,0,1,3,.35c-.49,3.2-1,6.24-1.4,9.3-2.45,20.13-5.41,40.22-7.08,60.42-1.11,13.47,2.56,25.92,12.07,36.44,5.78,6.4,10.54,13.73,15.56,20.79,1.67,2.35,2.71,5.16,4,7.76L590,253.4q-3-2.55-6-5.09c-25-20.91-49.15-42.84-75.1-62.45-31.21-23.59-66.4-40.58-102.56-55.39-43.86-18-89.13-31.09-136.07-37.8-19.32-2.76-38.9-4.82-58.39-5.1-27.79-.4-55.68.16-83.4,2.13-27.45,2-54.47,7.53-79.54,19.59C39.14,114,30.28,120.43,21,126.1Z" style="fill:#020202"/><path d="M157.83,111.43a12.29,12.29,0,0,1,12.7,12.3,12.56,12.56,0,0,1-25.11-.28A12.25,12.25,0,0,1,157.83,111.43Z" style="fill:#020202"></path>
            </g>
        </g>
    </g>     

</svg>