<?xml version="1.0" encoding="UTF-8"?>
<svg width="28px" height="28px" viewBox="0 0 28 28" version="1.1" xmlns="http://www.w3.org/2000/svg" xmlns:xlink="http://www.w3.org/1999/xlink">
    <!-- Generator: Sketch 43.1 (39012) - http://www.bohemiancoding.com/sketch -->
    <title>globe</title>
    <desc>Created with Sketch.</desc>
    <defs></defs>
    <g id="Page-1" stroke="none" stroke-width="1" fill="none" fill-rule="evenodd">
        <g id="mit-international-copy" transform="translate(-63.000000, -14.000000)" fill="#FFFFFF">
            <g id="globe" transform="translate(63.000000, 14.000000)">
                <g id="Group-2" transform="translate(0.000000, 0.136594)">
                    <path d="M26.4623682,9.45007324 C24.5594109,3.98209848 19.4592529,0.308283443 13.7714978,0.308283443 C12.2400733,0.308283443 10.7248688,0.57537922 9.26873006,1.10239413 C2.27112348,3.63387549 -1.4016636,11.4979115 1.08123963,18.6327387 C2.98389084,24.0997773 8.08404888,27.7735924 13.7718039,27.7742164 L13.772722,27.7742164 C15.3035345,27.7742164 16.8184329,27.5071207 18.2748777,26.9801058 C21.6642717,25.7535246 24.3828258,23.2551182 25.9292463,19.9438794 C27.4756669,16.6326406 27.6647997,12.9060929 26.4623682,9.45007324 Z M25.1007958,19.5413636 C23.659653,22.6266942 21.1268653,24.9553575 17.9679195,26.0976912 C16.6103257,26.5888229 15.1991749,26.8381331 13.773028,26.8381331 L13.7721099,26.8381331 C8.47210771,26.8375091 3.71961121,23.4142523 1.94641495,18.3194628 C-0.367248104,11.671399 3.05519818,4.34342665 9.57568826,1.98449666 C10.9332821,1.49336494 12.344739,1.24436677 13.7714978,1.24436677 C19.0715001,1.24436677 23.8239966,4.66793554 25.5968868,9.7630371 C26.7179116,12.9834758 26.5416325,16.4560329 25.1007958,19.5413636 Z" id="Shape"></path>
                    <path d="M25.2994158,14.5058593 L22.1450607,15.6469449 C22.0645721,14.2499965 21.7756703,12.7794096 21.269786,11.3256722 C20.7648199,9.87411899 20.0808203,8.54800094 19.2808315,7.41253186 L22.4336565,6.27175831 C22.5931033,6.21403317 22.6763462,6.03586531 22.6197288,5.87329884 C22.5631114,5.71073237 22.3871384,5.62648487 22.2292217,5.68358595 L18.8933847,6.89050939 C17.5921023,5.21960065 16.0309918,4.03857551 14.436829,3.61140949 C14.2740157,3.56710154 14.1059997,3.66726246 14.0631541,3.83388529 C14.0203084,4.00050812 14.1179352,4.17118732 14.2813606,4.21487121 C15.7010806,4.59523307 17.0972355,5.63366151 18.2855891,7.10986492 L12.4227792,9.23102974 L10.222351,2.90872293 C10.1657336,2.74615646 9.99159674,2.66128491 9.83153778,2.71901004 C9.67209089,2.77673518 9.58915403,2.95490304 9.6454654,3.11746952 L11.8458936,9.43977632 L5.98369577,11.5606291 C5.99379509,9.64977102 6.43694114,7.94609936 7.30517686,6.73886389 C7.40525197,6.60001153 7.37556608,6.40468214 7.23937824,6.30296109 C7.10319041,6.20061598 6.91160931,6.23088267 6.81184024,6.37004706 C5.83649049,7.72580775 5.35386527,9.64602668 5.37651224,11.7806087 L2.04006322,12.9878442 C1.88061633,13.0455693 1.79767947,13.2237372 1.85399084,13.3863036 C1.8986727,13.514235 2.01649813,13.5941141 2.14228061,13.5941141 C2.17625105,13.5941141 2.21083358,13.5881856 2.24449799,13.5760165 L5.39793504,12.435243 C5.47842359,13.8315673 5.76763147,15.3012181 6.27290365,16.7537074 C6.77817583,18.2061967 7.46278751,19.5329388 8.26338837,20.6690319 L5.10964528,21.8098055 C4.9501984,21.8675306 4.86726153,22.0456985 4.92357291,22.2079529 C4.96825476,22.3358843 5.0860802,22.4157634 5.21186267,22.4157634 C5.24583312,22.4157634 5.28041565,22.4098349 5.31408006,22.3976658 L8.65083512,21.1904304 C9.95181153,22.860715 11.5120039,24.0404921 13.1055546,24.4673461 C13.131568,24.4742107 13.1578875,24.477643 13.1835948,24.477643 C13.3191706,24.477643 13.4434229,24.3849707 13.4795356,24.2448703 C13.5223812,24.0782474 13.4247544,23.9075682 13.261329,23.8638844 C11.8425272,23.4835225 10.4466784,22.4457181 9.25863073,20.9707628 L15.1208286,18.84991 L17.3209508,25.1722168 C17.3656326,25.3001482 17.4834581,25.3800273 17.6092405,25.3800273 C17.643211,25.3800273 17.6777935,25.3740988 17.7114579,25.3619297 C17.8709048,25.3042046 17.9541477,25.1260367 17.8975303,24.9637823 L15.6974081,18.6411634 L21.5586878,16.5206227 C21.5479764,18.4302326 21.1051364,20.1332803 20.2372068,21.3395796 C20.1374377,21.478432 20.1668175,21.6737614 20.3030054,21.7757945 C20.3577865,21.8166701 20.4211368,21.8360158 20.4838751,21.8360158 C20.5781354,21.8360158 20.6708656,21.7917079 20.7311555,21.7087085 C21.7061992,20.3532598 22.1888244,18.434289 22.1664835,16.300331 L25.5035446,15.0930956 C25.6629914,15.0353704 25.7462344,14.8572026 25.6896169,14.6949481 C25.6336116,14.5330057 25.4576385,14.4490702 25.2994158,14.5058593 Z M8.86261486,20.4524847 C8.05313883,19.3341771 7.35842784,18.0083711 6.84948317,16.5455849 C6.34023247,15.0827987 6.05959371,13.6069073 5.99685549,12.2186957 L12.0503284,10.0285727 L14.9160878,18.2623617 L8.86261486,20.4524847 Z M12.627214,9.82013818 L18.681605,7.62970319 C19.4904689,8.74769872 20.1842618,10.0728807 20.6929004,11.5347308 C21.2021511,12.9984531 21.4827899,14.4749686 21.5458342,15.8641162 L15.4929733,18.0539272 L12.627214,9.82013818 Z" id="Shape"></path>
                </g>
            </g>
        </g>
    </g>
</svg>