<?xml version="1.0" encoding="UTF-8"?>
<svg width="158px" height="10px" viewBox="0 0 158 10" version="1.1" xmlns="http://www.w3.org/2000/svg" xmlns:xlink="http://www.w3.org/1999/xlink">
    <!-- Generator: Sketch 43.1 (39012) - http://www.bohemiancoding.com/sketch -->
    <title>senseable_logo</title>
    <desc>Created with Sketch.</desc>
    <defs></defs>
    <g id="Page-1" stroke="none" stroke-width="1" fill="none" fill-rule="evenodd">
        <g id="mit-international-copy" transform="translate(-889.000000, -23.000000)" fill-rule="nonzero" fill="#FFFFFF">
            <g id="senseable_logo" transform="translate(889.000000, 23.000000)">
                <g id="Group" transform="translate(140.273171, 0.000000)">
                    <path d="M0.385365854,1.38461538 C0.385365854,0.615384615 0.924878049,0.153846154 1.69560976,0.153846154 C2.54341463,0.153846154 3.00585366,0.692307692 3.00585366,1.38461538 C3.00585366,2.07692308 2.46634146,2.61538462 1.61853659,2.61538462 C0.924878049,2.61538462 0.385365854,2.07692308 0.385365854,1.38461538 Z M0.385365854,8.46153846 C0.385365854,7.69230769 0.924878049,7.23076923 1.69560976,7.23076923 C2.54341463,7.23076923 3.00585366,7.76923077 3.00585366,8.46153846 C3.00585366,9.15384615 2.46634146,9.69230769 1.61853659,9.69230769 C0.924878049,9.76923077 0.385365854,9.23076923 0.385365854,8.46153846 Z" id="Shape"></path>
                    <path d="M5.08682927,8.46153846 C5.08682927,7.76923077 5.62634146,7.23076923 6.47414634,7.23076923 C7.24487805,7.23076923 7.78439024,7.76923077 7.78439024,8.46153846 C7.78439024,9.15384615 7.24487805,9.69230769 6.39707317,9.69230769 C5.62634146,9.76923077 5.08682927,9.23076923 5.08682927,8.46153846 Z" id="Shape"></path>
                    <path d="M9.78829268,1.38461538 C9.78829268,0.615384615 10.3278049,0.153846154 11.0985366,0.153846154 C11.9463415,0.153846154 12.4087805,0.692307692 12.4087805,1.38461538 C12.4087805,2.07692308 11.8692683,2.61538462 11.0214634,2.61538462 C10.3278049,2.61538462 9.78829268,2.07692308 9.78829268,1.38461538 Z M9.78829268,8.46153846 C9.78829268,7.69230769 10.3278049,7.23076923 11.0985366,7.23076923 C11.9463415,7.23076923 12.4087805,7.76923077 12.4087805,8.46153846 C12.4087805,9.15384615 11.8692683,9.69230769 11.0214634,9.69230769 C10.3278049,9.76923077 9.78829268,9.23076923 9.78829268,8.46153846 Z" id="Shape"></path>
                    <path d="M14.4126829,1.38461538 C14.4126829,0.615384615 14.9521951,0.153846154 15.7229268,0.153846154 C16.5707317,0.153846154 17.0331707,0.692307692 17.0331707,1.38461538 C17.0331707,2.07692308 16.4936585,2.61538462 15.6458537,2.61538462 C14.9521951,2.61538462 14.4126829,2.07692308 14.4126829,1.38461538 Z M14.4126829,8.46153846 C14.4126829,7.69230769 14.9521951,7.23076923 15.7229268,7.23076923 C16.5707317,7.23076923 17.0331707,7.76923077 17.0331707,8.46153846 C17.0331707,9.15384615 16.4936585,9.69230769 15.6458537,9.69230769 C14.9521951,9.76923077 14.4126829,9.23076923 14.4126829,8.46153846 Z" id="Shape"></path>
                </g>
                <g id="Group">
                    <path d="M0.462439024,6.76923077 L2.46634146,6.76923077 C2.54341463,7.61538462 2.92878049,8.30769231 4.23902439,8.30769231 C5.16390244,8.30769231 5.7804878,7.76923077 5.7804878,7.07692308 C5.7804878,6.30769231 5.39512195,6.07692308 4.00780488,5.84615385 C1.69560976,5.53846154 0.770731707,4.84615385 0.770731707,3 C0.770731707,1.46153846 2.08097561,0.230769231 4.16195122,0.230769231 C6.24292683,0.230769231 7.47609756,1.15384615 7.6302439,3 L5.62634146,3 C5.47219512,2.15384615 5.0097561,1.76923077 4.08487805,1.76923077 C3.16,1.76923077 2.69756098,2.23076923 2.69756098,2.84615385 C2.69756098,3.53846154 3.00585366,3.84615385 4.39317073,4 C6.62829268,4.30769231 7.78439024,4.92307692 7.78439024,6.76923077 C7.78439024,8.38461538 6.47414634,9.69230769 4.23902439,9.69230769 C1.77268293,9.76923077 0.616585366,8.61538462 0.462439024,6.76923077 Z" id="Shape"></path>
                    <polygon id="Shape" points="9.32585366 0.384615385 15.337561 0.384615385 15.337561 2 11.4068293 2 11.4068293 4.15384615 14.5668293 4.15384615 14.5668293 5.69230769 11.4068293 5.69230769 11.4068293 8 15.5687805 8 15.5687805 9.61538462 9.32585366 9.61538462"></polygon>
                    <polygon id="Shape" points="16.9560976 0.384615385 19.3453659 0.384615385 22.8907317 6.46153846 22.8907317 0.384615385 24.7404878 0.384615385 24.7404878 9.61538462 22.6595122 9.61538462 18.8058537 3.07692308 18.8058537 9.61538462 16.9560976 9.61538462"></polygon>
                    <path d="M26.204878,6.76923077 L28.2087805,6.76923077 C28.2858537,7.61538462 28.6712195,8.30769231 29.9814634,8.30769231 C30.9063415,8.30769231 31.5229268,7.76923077 31.5229268,7.07692308 C31.5229268,6.30769231 31.137561,6.07692308 29.7502439,5.84615385 C27.3609756,5.53846154 26.4360976,4.84615385 26.4360976,3.07692308 C26.4360976,1.53846154 27.7463415,0.307692308 29.8273171,0.307692308 C31.9082927,0.307692308 33.1414634,1.23076923 33.2956098,3.07692308 L31.3687805,3.07692308 C31.2146341,2.23076923 30.7521951,1.84615385 29.8273171,1.84615385 C28.902439,1.84615385 28.44,2.30769231 28.44,2.92307692 C28.44,3.61538462 28.7482927,3.92307692 30.1356098,4.07692308 C32.3707317,4.38461538 33.5268293,5 33.5268293,6.84615385 C33.5268293,8.46153846 32.2165854,9.76923077 29.9814634,9.76923077 C27.4380488,9.76923077 26.2819512,8.61538462 26.204878,6.76923077 Z" id="Shape"></path>
                    <polygon id="Shape" points="34.9912195 0.384615385 41.0029268 0.384615385 41.0029268 2 37.0721951 2 37.0721951 4.15384615 40.2321951 4.15384615 40.2321951 5.69230769 37.0721951 5.69230769 37.0721951 8 41.2341463 8 41.2341463 9.61538462 34.9912195 9.61538462 34.9912195 0.384615385"></polygon>
                    <path d="M45.0107317,0.384615385 L47.7082927,0.384615385 L50.7141463,9.61538462 L48.5560976,9.61538462 L47.9395122,7.53846154 L44.6253659,7.53846154 L43.9317073,9.61538462 L42.004878,9.61538462 L45.0107317,0.384615385 Z M45.0107317,6.07692308 L47.4770732,6.07692308 L46.2439024,2.15384615 L45.0107317,6.07692308 Z" id="Shape"></path>
                    <path d="M51.9473171,0.384615385 L55.5697561,0.384615385 C57.5736585,0.384615385 58.6526829,1.23076923 58.6526829,2.76923077 L58.6526829,2.84615385 C58.6526829,3.84615385 58.1902439,4.53846154 57.1882927,4.84615385 C58.4214634,5.07692308 59.0380488,5.76923077 59.0380488,7 L59.0380488,7.07692308 C59.0380488,8.76923077 57.9590244,9.61538462 55.8009756,9.61538462 L52.0243902,9.61538462 L51.9473171,0.384615385 L51.9473171,0.384615385 Z M55.2614634,4.23076923 C56.2634146,4.23076923 56.6487805,3.84615385 56.6487805,3.07692308 L56.6487805,3 C56.6487805,2.23076923 56.1863415,1.84615385 55.2614634,1.84615385 L54.0282927,1.84615385 L54.0282927,4.23076923 L55.2614634,4.23076923 Z M55.4156098,8.15384615 C56.417561,8.15384615 56.88,7.69230769 56.88,6.84615385 L56.88,6.84615385 C56.88,6 56.417561,5.53846154 55.2614634,5.53846154 L53.9512195,5.53846154 L53.9512195,8.15384615 L55.4156098,8.15384615 L55.4156098,8.15384615 Z" id="Shape"></path>
                    <polygon id="Shape" points="60.502439 0.384615385 62.5834146 0.384615385 62.5834146 7.92307692 66.36 7.92307692 66.36 9.53846154 60.502439 9.53846154 60.502439 0.384615385"></polygon>
                    <path d="M67.6702439,0.384615385 L73.6819512,0.384615385 L73.6819512,2 L69.7512195,2 L69.7512195,4.15384615 L72.9112195,4.15384615 L72.9112195,5.69230769 L69.7512195,5.69230769 L69.7512195,8 L73.9131707,8 L73.9131707,9.61538462 L67.6702439,9.61538462 C67.6702439,9.61538462 67.6702439,0.384615385 67.6702439,0.384615385 Z" id="Shape"></path>
                    <path d="M77.7668293,5.07692308 L77.7668293,5.07692308 C77.7668293,2.23076923 79.6936585,0.307692308 82.3141463,0.307692308 C84.5492683,0.307692308 86.1678049,1.38461538 86.3990244,3.69230769 L84.2409756,3.69230769 C84.0868293,2.61538462 83.4702439,2 82.3141463,2 C80.8497561,2 79.924878,3.15384615 79.924878,5.07692308 L79.924878,5.15384615 C79.924878,7.07692308 80.7726829,8.15384615 82.3141463,8.15384615 C83.4702439,8.15384615 84.2409756,7.53846154 84.395122,6.38461538 L86.4760976,6.38461538 C86.244878,8.69230769 84.6263415,9.84615385 82.3141463,9.84615385 C79.3853659,9.76923077 77.7668293,7.92307692 77.7668293,5.07692308 Z" id="Shape"></path>
                    <polygon id="Shape" points="87.9404878 0.384615385 90.0214634 0.384615385 90.0214634 9.61538462 87.9404878 9.61538462"></polygon>
                    <polygon id="Shape" points="93.875122 2.07692308 91.4087805 2.07692308 91.4087805 0.384615385 98.4995122 0.384615385 98.4995122 2 96.0331707 2 96.0331707 9.61538462 93.9521951 9.61538462 93.9521951 2.07692308"></polygon>
                    <polygon id="Shape" points="102.121951 5.69230769 99.0390244 0.461538462 101.35122 0.461538462 103.200976 4 105.050732 0.461538462 107.054634 0.461538462 104.202927 5.69230769 104.202927 9.69230769 102.121951 9.69230769 102.121951 5.69230769"></polygon>
                    <polygon id="Shape" points="111.139512 0.384615385 113.220488 0.384615385 113.220488 7.92307692 116.997073 7.92307692 116.997073 9.53846154 111.139512 9.53846154"></polygon>
                    <path d="M120.696585,0.384615385 L123.394146,0.384615385 L126.4,9.61538462 L124.241951,9.61538462 L123.625366,7.53846154 L120.31122,7.53846154 L119.694634,9.61538462 L117.767805,9.61538462 L120.696585,0.384615385 Z M120.773659,6.07692308 L123.24,6.07692308 L122.006829,2.07692308 L120.773659,6.07692308 Z" id="Shape"></path>
                    <path d="M127.710244,0.384615385 L131.332683,0.384615385 C133.336585,0.384615385 134.41561,1.23076923 134.41561,2.76923077 L134.41561,2.84615385 C134.41561,3.84615385 133.953171,4.53846154 132.95122,4.84615385 C134.18439,5.07692308 134.800976,5.76923077 134.800976,7 L134.800976,7.07692308 C134.800976,8.76923077 133.721951,9.61538462 131.563902,9.61538462 L127.787317,9.61538462 L127.787317,0.384615385 L127.710244,0.384615385 L127.710244,0.384615385 Z M131.02439,4.23076923 C132.026341,4.23076923 132.411707,3.84615385 132.411707,3.07692308 L132.411707,3 C132.411707,2.23076923 131.949268,1.84615385 131.02439,1.84615385 L129.79122,1.84615385 L129.79122,4.23076923 L131.02439,4.23076923 Z M131.178537,8.15384615 C132.180488,8.15384615 132.642927,7.69230769 132.642927,6.84615385 L132.642927,6.84615385 C132.642927,6 132.180488,5.53846154 131.02439,5.53846154 L129.714146,5.53846154 L129.714146,8.15384615 L131.178537,8.15384615 L131.178537,8.15384615 Z" id="Shape"></path>
                </g>
            </g>
        </g>
    </g>
</svg>