<?xml version="1.0" encoding="UTF-8"?>
<svg width="40px" height="30px" viewBox="0 0 607.48 503.88" version="1.1" xmlns='http://www.w3.org/2000/svg' xmlns:xlink="http://www.w3.org/1999/xlink" >
    <title>UCL</title>
    <desc>Created with UCL</desc>
    <defs></defs>
    <path d="M2.5,208C5.58,195.32,14,186.55,23.89,178.88s21.38-12.95,33.29-17.06a241.73,241.73,0,0,1,36.91-9.49c17.88-3.16,35.83-5.46,54-5.78,7.81-.13,15.61-.89,23.42-1.09,13.29-.36,26.61-1,39.88-.6,14.92.48,29.82,1.94,44.72,3.13,8.62.68,17.24,1.45,25.81,2.56,9,1.17,17.91,2.79,26.85,4.22,4.77.77,9.57,1.35,14.28,2.37,11.69,2.53,23.37,5.14,35,8q14.18,3.43,28.2,7.42c6.06,1.71,12.05,3.73,18,5.82,10.95,3.84,22,7.55,32.74,11.86s21.47,9.24,32.11,14.07c5.5,2.49,10.85,5.32,16.23,8.07,4,2,7.86,4.23,11.84,6.24a2.37,2.37,0,0,0,2.13-.19,89.21,89.21,0,0,1,26-16.33,167.76,167.76,0,0,1,24.2-7.6c7.08-1.73,14.4-2.46,21.64-3.5,5.75-.82,8.66,2.79,7.42,8.5-1.83,8.36-3.68,16.73-4.95,25.18-1.75,11.67-3.31,23.38-4.3,35.13a84.33,84.33,0,0,0,3,30.89,9.79,9.79,0,0,0,1.5,3.14c4.27,5.61,8.74,11.07,12.9,16.76,4.92,6.74,10.62,13,13.86,20.87.44,1.07.73,2.21,1.1,3.31,1.19,3.53.56,6.32-1.77,7.85s-6.43,1.2-8.86-.93c-3.88-3.39-7.67-6.88-11.57-10.25-7.65-6.64-15.35-13.23-23-19.85-3.27-2.82-6.48-5.71-9.8-8.47-6.07-5-12.19-10-18.3-15-4.44-3.62-8.79-7.37-13.39-10.78-6.12-4.53-12.33-9-18.72-13.12-8.2-5.33-16.43-10.65-25-15.4-10.71-6-21.67-11.49-32.65-17-7.63-3.81-15.36-7.44-23.21-10.76q-15.57-6.6-31.4-12.54c-9.31-3.51-18.73-6.76-28.17-9.89-5.89-2-11.91-3.53-17.9-5.2-7.51-2.1-15-4.22-22.59-6.13q-9.4-2.37-18.94-4.23c-10.19-2-20.4-3.94-30.65-5.66-6.4-1.07-12.87-1.75-19.32-2.47-7.76-.87-15.54-1.69-23.32-2.34-4.48-.38-9-.46-13.48-.55-14.15-.28-28.31-.92-42.45-.61-15.22.33-30.47,1.07-45.61,2.57-12.72,1.25-25.37,3.51-37.94,6-7.77,1.52-15.28,4.37-23,6.35-9.32,2.4-18,6.3-26.49,10.71-7.84,4.08-15.1,9-21.06,15.72-3.4,3.82-7.18,3.67-10.64-.24Z" transform="translate(-2.5 -144.72)" style="fill:#fff"/>
    <path d="M497.91,521.63c5.46-3.08,10.58-5.78,15.51-8.79,5.3-3.23,10.46-6.69,15.6-10.17,7.44-5,14.7-10.32,20.61-17.19,4.59-5.35,8.33-11.16,9.53-18.32.9-5.39-.54-10.13-4.5-13.61A138.58,138.58,0,0,0,540,442.49a148.59,148.59,0,0,0-15.83-9.29c-6.81-3.41-13.87-6.32-20.88-9.32-4.93-2.12-9.89-4.24-15-6-9.43-3.22-18.92-6.25-28.44-9.18-7.05-2.17-14.16-4.15-21.29-6.05-5.93-1.58-11.92-2.93-17.89-4.36-10.18-2.43-20.35-4.89-30.55-7.24-6.71-1.54-13.48-2.87-20.21-4.35-6.4-1.42-12.78-2.93-19.19-4.35-3.89-.86-7.81-1.61-11.72-2.45-6.17-1.32-12.33-2.68-18.49-4-6.83-1.47-13.67-2.86-20.49-4.37-6.49-1.43-12.94-3-19.42-4.47-5.35-1.21-10.72-2.32-16.07-3.55q-13.26-3-26.49-6.16c-8.66-2.05-17.34-4-26-6.27-11.72-3.09-23.42-6.29-35-9.7-10.27-3-20.53-6.12-30.63-9.65-9.55-3.33-19-6.95-28.28-11C106.94,315.83,95.83,310.6,84.93,305c-7.58-3.9-14.81-8.51-22-13.07-5.87-3.7-11.68-7.56-17.19-11.78a46.09,46.09,0,0,1-9.32-9.34,10.61,10.61,0,0,1-1.34-10.25c1.66-4.14,6.18-5.41,10.23-3,9.59,5.74,19.07,11.66,28.79,17.16,7.48,4.24,15.25,7.94,22.89,11.9,4.18,2.17,8.27,4.5,12.52,6.53,6.36,3,12.8,5.88,19.22,8.76,7.86,3.53,15.64,7.25,23.64,10.45,10.13,4.05,20.4,7.83,30.71,11.42,7.59,2.65,15.31,5,23.06,7.16,6,1.69,12.1,2.94,18.15,4.41,8.71,2.11,17.39,4.32,26.12,6.33,8.17,1.88,16.39,3.56,24.59,5.33,12.11,2.63,24.21,5.29,36.33,7.87,6.5,1.38,13,2.59,19.55,3.95,7.73,1.62,15.44,3.34,23.16,5,8.21,1.75,16.44,3.4,24.63,5.22,11.69,2.6,23.34,5.33,35,7.95,4,.89,8,1.54,12,2.43,6.07,1.36,12.11,2.83,18.16,4.25q7.9,1.84,15.79,3.69c6.64,1.57,13.27,3.13,19.9,4.73,8.08,2,16.17,3.89,24.23,5.93,5.31,1.34,10.57,2.85,15.86,4.29,4.56,1.25,9.14,2.46,13.69,3.78,6.06,1.74,12.11,3.52,18.13,5.39,5.61,1.74,11.33,3.26,16.73,5.52,7,2.93,14.32,5.27,20.38,10.22,2.81,2.29,6.34,3.67,9.22,5.9,13.31,10.31,14.36,24.23,9.84,37.67a68.54,68.54,0,0,1-12.32,22c-5,6.06-10.24,12-15.59,17.74-6.19,6.68-13.61,11.89-21.35,16.57-7.24,4.37-14.69,8.38-22.13,12.39-5.09,2.74-10.34,5.17-15.48,7.81-4.64,2.39-9.38,4.64-13.76,7.44-1.79,1.14-3.08,3.4-4.07,5.41-3.3,6.7-6.36,13.51-9.5,20.28-3.32,7.15-6.55,14.33-9.94,21.44s-7.12,14.41-10.56,21.68c-2.77,5.83-5.29,11.78-8,17.64a32.91,32.91,0,0,1-2.65,4.75c-1.4,2.1-5.1,3.21-7.58,2.44-1.95-.59-3.35-3.07-3.61-5.78-.73-7.86-1.07-15.82-2.51-23.56-1.7-9-4.16-18-6.73-26.83-2.33-8-5-16-8-23.81-3.39-8.81-7.28-17.43-11.08-26.08-2.13-4.85-4.35-9.68-6.85-14.35-5-9.31-10.05-18.59-15.36-27.72-3.91-6.73-8.11-13.3-12.47-19.75-3.15-4.66-6.69-9.07-10.23-13.45-4.64-5.74-9.32-11.45-14.23-17-2.64-3-5.85-5.42-8.66-8.24a11.44,11.44,0,0,1-2.39-3.69,5,5,0,0,1,1.26-5.75,5.18,5.18,0,0,1,5.57-1.18q9.87,3.36,19.71,6.78c8.77,3.06,17.54,6.12,26.29,9.25,5.55,2,11,4.17,16.57,6.15,10.69,3.81,21.43,7.5,32.12,11.3,6.64,2.36,13.24,4.86,19.86,7.27,6.92,2.51,13.9,4.89,20.76,7.55,2.62,1,4.52.11,6.36-1.4,3.33-2.74,6.76-5.4,9.84-8.4,6.09-5.93,9.05-13.38,9.67-21.79.25-3.45,1.51-5.4,4.34-6.21a4.87,4.87,0,0,1,5.79,2.4,15,15,0,0,1,1.59,6.2A55.73,55.73,0,0,1,528.49,475c-3.63,9.31-9.58,16.92-16.14,24.26a141.05,141.05,0,0,1-16.19,15.4,1.69,1.69,0,0,0-.56,1.43C496.26,517.91,497.09,519.7,497.91,521.63Z" transform="translate(-2.5 -144.72)" style="fill:#fff"/>
    <path d="M150.27,185.28c10.15-.7,18.45,8.59,18.52,18.11a18.33,18.33,0,0,1-18.44,18.86c-10.37-.07-18.42-7.47-18.69-18.69C131.43,194.06,139.85,184.61,150.27,185.28Z" transform="translate(-2.5 -144.72)" style="fill:#fff"/>
</svg>