<?xml version="1.0" encoding="UTF-8"?>
<svg width="110px" height="80px" viewBox="0 0 612 164.44" version="1.1" xmlns='http://www.w3.org/2000/svg' xmlns:xlink="http://www.w3.org/1999/xlink">
<title>UCL</title>
    <desc>Created with UCL</desc>
    <defs></defs>
    <path d="M-21.14,591.59V335.1h673.5V591.59Zm227-194.87c0,4.55,0,7.91,0,11.27-.07,34.13,0,68.27-.3,102.4-.11,12.23-5.54,18.92-16.11,21.73-19.34,5.14-32.49-5.06-32.58-25.66-.14-33.21,0-66.43,0-99.64V396.08c-16.61,0-31.92.24-47.21-.12-6.46-.15-8.4,2-8.29,8.48.58,36.58.57,73.17,1.1,109.76.22,14.92,4.78,28.64,15.91,39,3.59,3.35,9.27,6.2,14,6.25,31.67.33,63.34-.48,95-.17,8.43.09,13.87-3.11,18.73-9.24,11-13.9,15.17-30.1,15.34-47.33.33-32.9.14-65.81.1-98.71a69.32,69.32,0,0,0-.77-7.3ZM459,438.14c-16.78-29.21-41.31-43.74-72.82-47.78-41.37-5.31-78.81,14.91-95,51.47-17.4,39.28-8.69,87.89,20.56,113a17.9,17.9,0,0,0,10.49,4.11c34.11.47,68.22.56,102.34.6,2.91,0,6.34-.33,8.65-1.84,11.61-7.62,18.58-19,25.33-31.5l-46.7-22.63c-2.22,4.15-3.87,7.77-6,11.11-7.73,12.22-18.84,18.25-33.37,17.22s-24.09-9.06-29.05-22.15c-6.62-17.46-7.59-35.34-1.14-53.18,5.19-14.35,15.42-23,30.6-24.32,14.88-1.31,26,5.6,33.7,18.26,2,3.3,3.84,6.69,6,10.48Zm149.2,87.36h-72V396.68H482V559.25H608.15ZM74.83,470.84c-7.1-11.59-7.64-22.9-2.24-34.67-19.88-6.49-39.15-7.42-56.25-.68-.75,12.62-1.41,23.78-2.09,35.35ZM42.27,400.62c-1.2,9.87-15.14,14.43-11,25.85H57.17c-1.82-4.83-3-9.54-5.29-13.56C49.39,408.63,45.78,405,42.27,400.62Z" style="fill:#fff"/>
    <path d="M205.85,396.72h54.92a69.32,69.32,0,0,1,.77,7.3c0,32.9.23,65.81-.1,98.71-.17,17.23-4.32,33.43-15.34,47.33-4.86,6.13-10.3,9.33-18.73,9.24-31.67-.31-63.34.5-95,.17-4.75-.05-10.43-2.9-14-6.25-11.13-10.38-15.69-24.1-15.91-39-.53-36.59-.52-73.18-1.1-109.76-.11-6.49,1.83-8.63,8.29-8.48,15.29.36,30.6.12,47.21.12v10.74c0,33.21-.11,66.43,0,99.64.09,20.6,13.24,30.8,32.58,25.66,10.57-2.81,16-9.5,16.11-21.73.32-34.13.23-68.27.3-102.4C205.86,404.63,205.85,401.27,205.85,396.72Z" transform="translate(0 -355.23)" style="fill:#fff"/>
    <path d="M459,438.14,412.55,461c-2.16-3.79-4-7.18-6-10.48-7.66-12.66-18.82-19.57-33.7-18.26-15.18,1.34-25.41,10-30.6,24.32-6.45,17.84-5.48,35.72,1.14,53.18,5,13.09,14.62,21.12,29.05,22.15s25.64-5,33.37-17.22c2.11-3.34,3.76-7,6-11.11l46.7,22.63c-6.75,12.53-13.72,23.88-25.33,31.5-2.31,1.51-5.74,1.84-8.65,1.84-34.12,0-68.23-.13-102.34-.6a17.9,17.9,0,0,1-10.49-4.11c-29.25-25.08-38-73.69-20.56-113,16.2-36.56,53.64-56.78,95-51.47C417.64,394.4,442.17,408.93,459,438.14Z" transform="translate(0 -355.23)" style="fill:#fff"/>
    <path d="M608.15,525.5v33.75H482V396.68h54.17V525.5Z" transform="translate(0 -355.23)" style="fill:#fff"/>
    <path d="M74.83,470.84H14.25c.68-11.57,1.34-22.73,2.09-35.35,17.1-6.74,36.37-5.81,56.25.68C67.19,447.94,67.73,459.25,74.83,470.84ZM23.52,440.3c-1,1.88-2.6,2.71-3.6,5.67-1.05,3.13-.51,6.72.08,9.94.33,1.85,2.26,3.41,3.46,5.1,1-1.63.9-8.53,1.05-10.35C24.74,447.86,24.74,442.25,23.52,440.3Zm32,0c.56-.27-1.58-.37-4.83,0-1.47.17-1.29,18.37-.71,19.65.86,1.87,5.06,1.95,5.61.21S55.52,442.14,55.52,440.3ZM40,440.46a169,169,0,0,0,.14,20.19c.08,1,4.92.4,4.92.4,1.05-.66,1.06-21-.12-21C39.3,440.32,43.7,440,40,440.46Zm-4.36.14c-3.94-.29-4.83-.91-4.76,1.12.14,3.94-2,17.75.19,18.93,2.47,1.34,2.32.36,4.71.36C37.17,461,37,440.7,35.62,440.6Zm25.42,20c6.21-3.62,6.22-20.93,0-20.93Z" transform="translate(0 -355.23)" style="fill:#fff"/>
    <path d="M42.27,400.62c3.51,4.39,7.12,8,9.61,12.29,2.33,4,3.47,8.73,5.29,13.56H31.23C27.13,415.05,41.07,410.49,42.27,400.62Z" transform="translate(0 -355.23)" style="fill:#fff"/>
</svg>